<?xml version="1.0" encoding="UTF-8"?><svg id="logo" xmlns="http://www.w3.org/2000/svg" viewBox="0 0 32 32"><defs><style>.head{fill:url(#linear-gradient);}.head,.arms,.left-leg,.right-leg{stroke-width:0px;}.arms{fill:url(#linear-gradient-2);}.left-leg{fill:url(#linear-gradient-3);}.right-leg{fill:url(#linear-gradient-4);}</style><linearGradient id="linear-gradient" x1="16" y1="-1.54" x2="16" y2="4.82" gradientTransform="translate(0 8) scale(1 -1)" gradientUnits="userSpaceOnUse"><stop offset="0" stop-color="#009cff"/><stop offset="1" stop-color="#4f55f0"/></linearGradient><linearGradient id="linear-gradient-2" x1="5.42" y1="-8.88" x2="26.58" y2="-8.88" gradientTransform="translate(0 8) scale(1 -1)" gradientUnits="userSpaceOnUse"><stop offset="0" stop-color="#009cff"/><stop offset="1" stop-color="#4f55f0"/></linearGradient><linearGradient id="linear-gradient-3" x1="1.07" y1="-13.96" x2="11.2" y2="-20.17" gradientTransform="translate(0 8) scale(1 -1)" gradientUnits="userSpaceOnUse"><stop offset="0" stop-color="#009cff"/><stop offset="1" stop-color="#72e6ff"/></linearGradient><linearGradient id="linear-gradient-4" x1="5.74" y1="-18.78" x2="32" y2="-18.78" gradientTransform="translate(0 8) scale(1 -1)" gradientUnits="userSpaceOnUse"><stop offset="0" stop-color="#009cff"/><stop offset="1" stop-color="#4f55f0"/></linearGradient></defs><g id="icon"><ellipse id="head" class="head" cx="16" cy="5.69" rx="3.86" ry="3.78"/><path id="arms" class="arms" d="M26.58,20.18l-5.18-5.44c-2.64-2.9-7.14-3.11-10.04-.46-.16.15-.32.3-.46.46l-5.49,5.84,2.75.76,4.28-4.52c1.88-2.07,5.09-2.22,7.15-.34.12.11.23.22.34.34l4.2,4.45,2.44-1.09Z"/><path id="left-leg" class="left-leg" d="M26.26,30.09H3.38c-1.85.02-3.36-1.46-3.38-3.3h0c.03-1.86,1.56-3.35,3.42-3.32.32,0,.64.05.94.15l21.89,6.48Z"/><path id="right-leg" class="right-leg" d="M5.74,30.09h22.87c1.85.02,3.36-1.46,3.38-3.3h0c-.03-1.86-1.56-3.35-3.42-3.32-.32,0-.64.05-.94.15l-21.89,6.48Z"/></g></svg>
